<svg width="50" height="46" viewBox="0 0 50 46" fill="none" xmlns="http://www.w3.org/2000/svg">
<path fill-rule="evenodd" clip-rule="evenodd" d="M23.2749 0.21958C13.3733 0.835819 4.77066 6.89398 1.40182 15.6231C0.89277 16.9422 0.407692 18.7835 0.181153 20.2564C-0.0379499 21.6808 -0.063197 24.7424 0.132224 26.1826C1.13369 33.5618 5.76146 39.9859 12.7276 43.6668C14.3327 44.515 16.8183 45.4713 17.4576 45.4867C17.9585 45.4987 18.3774 45.3102 18.594 44.9754C18.7673 44.7074 18.7793 44.5224 18.7515 42.5592C18.735 41.39 18.714 40.4279 18.7048 40.4212C18.6957 40.4146 18.3359 40.4631 17.9054 40.5292C15.3274 40.9248 13.0384 40.3844 11.5793 39.0357C11.0185 38.5174 10.8391 38.2617 10.2762 37.1794C9.35008 35.3984 8.81539 34.7241 7.77713 34.0277C7.01384 33.5158 6.60284 33.1395 6.60284 32.9527C6.60284 32.4995 7.78769 32.3473 8.73074 32.6794C9.94642 33.1075 10.7644 33.7596 11.6561 35.0114C12.8867 36.739 14.4291 37.5073 16.3936 37.371C17.1505 37.3184 18.6792 36.9283 18.7926 36.7586C18.8274 36.7066 18.9184 36.4163 18.9948 36.1135C19.177 35.3912 19.6528 34.4809 20.0727 34.0511C20.464 33.6507 20.5017 33.6746 19.2264 33.5113C18.2228 33.3829 16.4715 32.9687 15.6219 32.659C12.0828 31.3687 10.0364 28.9528 9.27141 25.1624C9.02686 23.951 9.0296 20.9703 9.2761 20.0302C9.62927 18.6829 10.2797 17.4527 11.1779 16.4331L11.6054 15.9478L11.4577 15.5235C10.9505 14.0659 11.0085 12.173 11.6139 10.4241C11.8059 9.86932 11.8485 9.81612 12.1412 9.76536C13.1902 9.58341 15.5861 10.3745 17.7759 11.6258L18.7356 12.174L19.5926 11.9914C21.5799 11.5676 22.5016 11.4805 25 11.4805C27.5004 11.4805 28.4199 11.5676 30.4138 11.9927L31.2771 12.1768L32.0284 11.7423C33.5254 10.8765 34.9991 10.2297 36.0089 9.99499C36.8392 9.8021 37.5609 9.7146 37.876 9.7688C38.148 9.81558 38.1974 9.879 38.3864 10.4241C38.9444 12.0337 39.0379 14.0791 38.6106 15.3254L38.4089 15.9135L38.6062 16.1397C39.5594 17.2322 40.311 18.5759 40.6738 19.836C40.9305 20.7272 41.0256 22.9933 40.8594 24.2551C40.1344 29.7596 36.8834 32.714 30.6757 33.5096C29.5002 33.6603 29.5176 33.6499 29.8661 33.9891C30.315 34.426 30.7472 35.2032 30.9874 36.006C31.1891 36.6798 31.2054 36.9691 31.2569 40.7946C31.3169 45.2424 31.3046 45.1541 31.8962 45.3822C32.3557 45.5594 32.8978 45.4953 33.8561 45.1505C37.261 43.9252 39.94 42.3287 42.504 39.9971C46.5859 36.2852 49.1493 31.4762 49.8678 26.1826C50.0632 24.7424 50.0379 21.6808 49.8188 20.2564C48.1226 9.2272 38.5525 0.971263 26.592 0.218946C25.0157 0.119784 24.8787 0.119784 23.2749 0.21958Z" fill="white"/>
</svg>
