<svg width="352" height="66" viewBox="0 0 352 66" fill="none" xmlns="http://www.w3.org/2000/svg">
<path d="M151.92 32.25L158.97 49.86L157.17 49.5L163.77 32.25H167.49L157.83 55.02L148.17 32.25H151.92ZM173.24 32.25H176.36V50.97H187.28V54H173.24V32.25ZM191.24 54L200.81 31.35H200.99L210.56 54H206.93L199.97 36.27L202.22 34.8L194.36 54H191.24ZM197.03 45.84H204.83L205.91 48.54H196.1L197.03 45.84ZM215.996 54V32.25H222.026C224.186 32.25 226.016 32.58 227.516 33.24C229.016 33.88 230.236 34.75 231.176 35.85C232.116 36.93 232.796 38.13 233.216 39.45C233.656 40.77 233.876 42.09 233.876 43.41C233.876 45.03 233.586 46.5 233.006 47.82C232.446 49.12 231.656 50.23 230.636 51.15C229.636 52.07 228.486 52.78 227.186 53.28C225.886 53.76 224.516 54 223.076 54H215.996ZM219.116 50.97H222.476C224.056 50.97 225.456 50.67 226.676 50.07C227.896 49.47 228.856 48.59 229.556 47.43C230.276 46.27 230.636 44.86 230.636 43.2C230.636 41.84 230.406 40.67 229.946 39.69C229.506 38.69 228.916 37.87 228.176 37.23C227.436 36.57 226.606 36.08 225.686 35.76C224.766 35.44 223.826 35.28 222.866 35.28H219.116V50.97ZM240.172 32.25H243.292V54H240.172V32.25ZM262.269 36.36C261.509 35.96 260.689 35.62 259.809 35.34C258.929 35.06 258.079 34.92 257.259 34.92C256.119 34.92 255.219 35.18 254.559 35.7C253.899 36.2 253.569 36.9 253.569 37.8C253.569 38.42 253.789 38.96 254.229 39.42C254.669 39.88 255.239 40.28 255.939 40.62C256.639 40.96 257.379 41.28 258.159 41.58C259.059 41.9 259.929 42.31 260.769 42.81C261.609 43.29 262.299 43.94 262.839 44.76C263.379 45.58 263.649 46.68 263.649 48.06C263.649 49.2 263.359 50.24 262.779 51.18C262.199 52.12 261.369 52.87 260.289 53.43C259.229 53.97 257.949 54.24 256.449 54.24C255.049 54.24 253.719 54.02 252.459 53.58C251.219 53.12 250.149 52.58 249.249 51.96L250.659 49.47C251.359 50.01 252.219 50.48 253.239 50.88C254.259 51.28 255.229 51.48 256.149 51.48C256.829 51.48 257.489 51.37 258.129 51.15C258.769 50.91 259.299 50.54 259.719 50.04C260.159 49.54 260.379 48.88 260.379 48.06C260.379 47.38 260.189 46.8 259.809 46.32C259.429 45.84 258.929 45.43 258.309 45.09C257.709 44.75 257.059 44.45 256.359 44.19C255.679 43.93 254.979 43.65 254.259 43.35C253.559 43.03 252.909 42.64 252.309 42.18C251.729 41.72 251.249 41.16 250.869 40.5C250.509 39.82 250.329 39 250.329 38.04C250.329 36.86 250.599 35.84 251.139 34.98C251.699 34.12 252.469 33.44 253.449 32.94C254.429 32.44 255.549 32.17 256.809 32.13C258.249 32.13 259.509 32.31 260.589 32.67C261.669 33.01 262.619 33.43 263.439 33.93L262.269 36.36ZM269.92 32.25H273.04V50.97H283.96V54H269.92V32.25ZM287.92 54L297.49 31.35H297.67L307.24 54H303.61L296.65 36.27L298.9 34.8L291.04 54H287.92ZM293.71 45.84H301.51L302.59 48.54H292.78L293.71 45.84ZM311.547 32.25L318.597 49.86L316.797 49.5L323.397 32.25H327.117L317.457 55.02L307.797 32.25H311.547Z" fill="white"/>
<path d="M0.964023 53L10.534 30.35H10.714L20.284 53H16.654L9.69402 35.27L11.944 33.8L4.08402 53H0.964023ZM6.75402 44.84H14.554L15.634 47.54H5.82402L6.75402 44.84ZM28.8999 39.83L28.8099 40.91L29.2299 40.31L37.8099 31.25H41.8899L32.8899 40.67L42.3099 53H38.3199L30.5799 42.65L28.8699 44.3L28.8999 53H25.7199V31.25H28.8999V39.83ZM45.3816 42.14C45.3816 40.64 45.6616 39.22 46.2216 37.88C46.8016 36.54 47.6016 35.36 48.6216 34.34C49.6416 33.3 50.8216 32.49 52.1616 31.91C53.5016 31.31 54.9316 31.01 56.4516 31.01C57.9716 31.01 59.4016 31.31 60.7416 31.91C62.1016 32.49 63.2916 33.3 64.3116 34.34C65.3516 35.36 66.1616 36.54 66.7416 37.88C67.3216 39.22 67.6116 40.64 67.6116 42.14C67.6116 43.68 67.3216 45.12 66.7416 46.46C66.1616 47.8 65.3516 48.98 64.3116 50C63.2916 51.02 62.1016 51.82 60.7416 52.4C59.4016 52.96 57.9716 53.24 56.4516 53.24C54.9316 53.24 53.5016 52.96 52.1616 52.4C50.8216 51.82 49.6416 51.03 48.6216 50.03C47.6016 49.03 46.8016 47.86 46.2216 46.52C45.6616 45.16 45.3816 43.7 45.3816 42.14ZM48.6216 42.17C48.6216 43.65 48.9716 45 49.6716 46.22C50.3716 47.44 51.3216 48.41 52.5216 49.13C53.7216 49.85 55.0616 50.21 56.5416 50.21C58.0016 50.21 59.3216 49.85 60.5016 49.13C61.6816 48.41 62.6216 47.44 63.3216 46.22C64.0216 45 64.3716 43.64 64.3716 42.14C64.3716 40.64 64.0116 39.28 63.2916 38.06C62.5916 36.82 61.6416 35.84 60.4416 35.12C59.2616 34.4 57.9416 34.04 56.4816 34.04C55.0016 34.04 53.6616 34.41 52.4616 35.15C51.2816 35.87 50.3416 36.85 49.6416 38.09C48.9616 39.31 48.6216 40.67 48.6216 42.17ZM79.865 31.25C82.265 31.25 84.145 31.85 85.505 33.05C86.865 34.25 87.545 35.93 87.545 38.09C87.545 38.95 87.415 39.8 87.155 40.64C86.895 41.48 86.475 42.25 85.895 42.95C85.335 43.63 84.585 44.18 83.645 44.6C82.725 45 81.595 45.2 80.255 45.2H77.045V53H73.925V31.25H79.865ZM80.225 42.14C81.045 42.14 81.725 42.01 82.265 41.75C82.825 41.47 83.255 41.12 83.555 40.7C83.875 40.28 84.095 39.84 84.215 39.38C84.355 38.92 84.425 38.51 84.425 38.15C84.425 37.75 84.355 37.33 84.215 36.89C84.095 36.43 83.875 36.01 83.555 35.63C83.255 35.23 82.845 34.91 82.325 34.67C81.805 34.41 81.155 34.28 80.375 34.28H77.045V42.14H80.225ZM93.4718 31.25H96.5918V53H93.4718V31.25ZM102.009 53L111.579 30.35H111.759L121.329 53H117.699L110.739 35.27L112.989 33.8L105.129 53H102.009ZM107.799 44.84H115.599L116.679 47.54H106.869L107.799 44.84ZM145.695 53.75L128.925 37.01L129.855 37.31L129.915 53H126.765V30.56H126.885L143.445 47.3L142.725 47.12L142.665 31.25H145.785V53.75H145.695Z" fill="#5C5C5C"/>
</svg>
