<svg width="35" height="26" viewBox="0 0 35 26" fill="none" xmlns="http://www.w3.org/2000/svg">
<path fill-rule="evenodd" clip-rule="evenodd" d="M2.83529 0.355045C1.51532 0.712465 0.479995 1.76994 0.131788 3.11626C-0.045869 3.80311 -0.0429798 21.8343 0.134833 22.5219C0.485696 23.8783 1.52649 24.9231 2.88067 25.2783C3.556 25.4554 31.4593 25.4554 32.1346 25.2783C33.4888 24.9231 34.5296 23.8783 34.8804 22.5219C34.9845 22.1195 35 20.8623 35 12.8132C35 4.76401 34.9845 3.50679 34.8804 3.10439C34.5296 1.748 33.4888 0.703264 32.1346 0.348046C31.4711 0.174015 3.47908 0.180621 2.83529 0.355045ZM30.3127 2.93374C29.9025 3.32938 18.349 12.9836 18.1107 13.1298C17.959 13.223 17.7196 13.2844 17.5076 13.2844C17.2957 13.2844 17.0563 13.223 16.9045 13.1298C16.6663 12.9836 5.11274 3.32938 4.70253 2.93374L4.50902 2.7472H17.5076H30.5063L30.3127 2.93374ZM8.99573 9.83143C12.3673 12.6589 15.2954 15.0874 15.5027 15.2282C16.5785 15.9593 18.2475 15.9923 19.3985 15.3054C19.5826 15.1956 22.5972 12.701 26.0976 9.76199L32.462 4.41823L32.4842 13.0392C32.4964 17.7808 32.4859 21.7759 32.4609 21.9174C32.3991 22.2662 32.0024 22.7017 31.6544 22.803C31.4572 22.8603 27.0254 22.8789 17.3376 22.8629L3.3065 22.8398L3.09089 22.6776C2.97227 22.5885 2.80281 22.4178 2.71425 22.2984C2.55417 22.0824 2.55315 22.031 2.53269 13.2253L2.51215 4.36932L2.68887 4.53006C2.7861 4.61845 5.62416 7.00408 8.99573 9.83143Z" fill="url(#paint0_linear_168_37)"/>
<defs>
<linearGradient id="paint0_linear_168_37" x1="0" y1="0.220825" x2="35.1789" y2="25.1588" gradientUnits="userSpaceOnUse">
<stop stop-color="#00FC0A"/>
<stop offset="0.53125" stop-color="#33FF00" stop-opacity="0.78"/>
<stop offset="0.755208" stop-color="#88FF7D" stop-opacity="0.730729"/>
</linearGradient>
</defs>
</svg>
